<?xml version="1.0" encoding="UTF-8"?>
<svg width="352px" height="51px" viewBox="0 0 352 51" version="1.1" xmlns="http://www.w3.org/2000/svg" xmlns:xlink="http://www.w3.org/1999/xlink">
    <!-- Generator: Sketch 53 (72520) - https://sketchapp.com -->
    <title>Logo / Dark</title>
    <desc>Created with Sketch.</desc>
    <g id="Page-1" stroke="none" stroke-width="1" fill="none" fill-rule="evenodd">
        <g id="Movikarma" transform="translate(-132.000000, -414.000000)">
            <g id="Logo-/-Dark" transform="translate(132.000000, 414.000000)">
                <g id="Group-Copy">
                    <path d="M4.27,17.69 C5.4366725,16.1966592 6.8133254,15.0416708 8.4,14.225 C9.9866746,13.4083293 11.946655,13 14.28,13 C16.9400133,13 19.203324,13.5599944 21.07,14.68 C22.936676,15.8000056 24.4066613,17.4333226 25.48,19.58 C26.5533387,17.5733233 28.128323,15.975006 30.205,14.785 C32.281677,13.5949941 34.6733198,13 37.38,13 C39.246676,13 40.9733254,13.3266634 42.56,13.98 C44.1466746,14.6333366 45.5233275,15.5899937 46.69,16.85 C47.8566725,18.1100063 48.7783299,19.6849906 49.455,21.575 C50.13167,23.4650095 50.47,25.6699874 50.47,28.19 L50.47,48.56 C50.47,49.5866718 49.9566718,50.1 48.93,50.1 L47.74,50.1 C46.7133282,50.1 46.2,49.5866718 46.2,48.56 L46.2,28.89 C46.2,26.6033219 45.9433359,24.7016742 45.43,23.185 C44.9166641,21.6683258 44.2166711,20.4550046 43.33,19.545 C42.4433289,18.6349955 41.4283391,17.9933352 40.285,17.62 C39.1416609,17.2466648 37.9400063,17.06 36.68,17.06 C35.6066613,17.06 34.5216722,17.2466648 33.425,17.62 C32.3283278,17.9933352 31.3250045,18.6349955 30.415,19.545 C29.5049954,20.4550046 28.7700028,21.6683258 28.21,23.185 C27.6499972,24.7016742 27.37,26.6033219 27.37,28.89 L27.37,48.56 C27.37,49.5866718 26.8566718,50.1 25.83,50.1 L24.64,50.1 C23.6133282,50.1 23.1,49.5866718 23.1,48.56 L23.1,28.89 C23.1,26.6033219 22.8200028,24.7016742 22.26,23.185 C21.6999972,21.6683258 20.9766711,20.4550046 20.09,19.545 C19.2033289,18.6349955 18.188339,17.9933352 17.045,17.62 C15.9016609,17.2466648 14.7466725,17.06 13.58,17.06 C12.5066613,17.06 11.4216721,17.2466648 10.325,17.62 C9.22832785,17.9933352 8.22500455,18.6349955 7.315,19.545 C6.40499545,20.4550046 5.6700028,21.6566592 5.11,23.15 C4.5499972,24.6433408 4.27,26.5333219 4.27,28.82 L4.27,48.56 C4.27,49.5866718 3.7566718,50.1 2.73,50.1 L1.54,50.1 C0.5133282,50.1 -8.52651283e-14,49.5866718 -8.52651283e-14,48.56 L-8.52651283e-14,15.24 C-8.52651283e-14,14.2133282 0.5133282,13.7 1.54,13.7 L2.73,13.7 C3.7566718,13.7 4.27,14.2133282 4.27,15.24 L4.27,17.69 Z M117.29,49.7 C116.54333,49.7 115.971669,49.5366683 115.575,49.21 C115.178332,48.8833317 114.863335,48.4633359 114.63,47.95 L101.75,15.47 C101.656666,15.1899986 101.61,14.9333345 101.61,14.7 C101.61,14.3266648 101.749999,14.0000014 102.03,13.72 C102.310002,13.4399986 102.636665,13.3 103.01,13.3 L104.48,13.3 C104.946669,13.3 105.296666,13.428332 105.53,13.685 C105.763335,13.9416679 105.926666,14.1633324 106.02,14.35 L117.85,44.59 L129.68,14.35 C129.773334,14.1633324 129.936666,13.9416679 130.17,13.685 C130.403335,13.428332 130.753331,13.3 131.22,13.3 L132.69,13.3 C133.063335,13.3 133.389999,13.4399986 133.67,13.72 C133.950002,14.0000014 134.09,14.3266648 134.09,14.7 C134.09,14.9333345 134.043334,15.1899986 133.95,15.47 L121.07,47.95 C120.836666,48.4633359 120.521669,48.8833317 120.125,49.21 C119.728332,49.5366683 119.156671,49.7 118.41,49.7 L117.29,49.7 Z M149.07,4.27 C149.07,4.736669 148.918335,5.1099986 148.615,5.39 C148.311666,5.6700014 147.926669,5.81 147.46,5.81 L144.8,5.81 C143.773329,5.81 143.26,5.2966718 143.26,4.27 L143.26,1.61 C143.26,1.143331 143.399999,0.75833485 143.68,0.455 C143.960002,0.15166515 144.333331,0 144.8,0 L147.46,0 C147.926669,0 148.311666,0.15166515 148.615,0.455 C148.918335,0.75833485 149.07,1.143331 149.07,1.61 L149.07,4.27 Z M148.3,48.16 C148.3,49.1866718 147.786672,49.7 146.76,49.7 L145.57,49.7 C144.543329,49.7 144.03,49.1866718 144.03,48.16 L144.03,14.84 C144.03,13.8133282 144.543329,13.3 145.57,13.3 L146.76,13.3 C147.786672,13.3 148.3,13.8133282 148.3,14.84 L148.3,48.16 Z M167.93,29.54 L187.39,46.9 C187.99667,47.4600028 188.3,47.9266648 188.3,48.3 C188.3,49.233338 187.833338,49.7 186.9,49.7 L185.78,49.7 C185.079996,49.7 184.578335,49.6416673 184.275,49.525 C183.971665,49.4083327 183.493337,49.0700028 182.84,48.51 L165.27,32.9 L165.27,48.16 C165.27,49.1866718 164.756672,49.7 163.73,49.7 L162.54,49.7 C161.513328,49.7 161,49.1866718 161,48.16 L161,1.54 C161,0.5133282 161.513328,0 162.54,0 L163.73,0 C164.756672,0 165.27,0.5133282 165.27,1.54 L165.27,26.32 L180.88,14.49 C181.533337,13.9766641 182.011665,13.6500007 182.315,13.51 C182.618335,13.3699993 183.119996,13.3 183.82,13.3 L185.15,13.3 C186.083338,13.3 186.55,13.766662 186.55,14.7 C186.55,14.8866676 186.491667,15.1083321 186.375,15.365 C186.258333,15.621668 186.013335,15.8666655 185.64,16.1 L167.93,29.54 Z M220.260001,49.7 C219.233329,49.7 218.720001,49.1866718 218.720001,48.16 L218.720001,44.87 C218.299998,45.5233366 217.751671,46.1766634 217.075001,46.83 C216.398331,47.4833366 215.570005,48.0666641 214.590001,48.58 C213.609996,49.0933359 212.443341,49.5249983 211.090001,49.875 C209.73666,50.2250017 208.15001,50.4 206.330001,50.4 C204.649992,50.4 203.051675,50.1316693 201.535001,49.595 C200.018326,49.0583306 198.68834,48.323338 197.545001,47.39 C196.401662,46.456662 195.491671,45.3600063 194.815001,44.1 C194.138331,42.8399937 193.800001,41.4633408 193.800001,39.97 C193.800001,38.3833254 194.138331,36.9600063 194.815001,35.7 C195.491671,34.4399937 196.436661,33.3316714 197.650001,32.375 C198.86334,31.4183286 200.321659,30.6250032 202.025001,29.995 C203.728342,29.3649968 205.606657,28.9100014 207.660001,28.63 L218.720001,27.09 L218.720001,24.64 C218.720001,22.1199874 217.961675,20.160007 216.445001,18.76 C214.928326,17.359993 212.51335,16.66 209.200001,16.66 C206.586654,16.66 204.568341,17.1616616 203.145001,18.165 C201.72166,19.1683384 200.823336,20.2533275 200.450001,21.42 C200.263333,21.9800028 200.041669,22.3649989 199.785001,22.575 C199.528333,22.7850011 199.190003,22.89 198.770001,22.89 L197.790001,22.89 C197.369998,22.89 197.008335,22.7383349 196.705001,22.435 C196.401666,22.1316652 196.250001,21.7700021 196.250001,21.35 C196.250001,20.6966634 196.483332,19.8800049 196.950001,18.9 C197.41667,17.9199951 198.174995,16.963338 199.225001,16.03 C200.275006,15.096662 201.616659,14.29167 203.250001,13.615 C204.883342,12.9383299 206.866656,12.6 209.200001,12.6 C211.953348,12.6 214.228325,12.9733296 216.025001,13.72 C217.821676,14.4666704 219.233329,15.4349941 220.260001,16.625 C221.286672,17.815006 221.998332,19.1333261 222.395001,20.58 C222.791669,22.0266739 222.990001,23.449993 222.990001,24.85 L222.990001,48.16 C222.990001,49.1866718 222.476672,49.7 221.450001,49.7 L220.260001,49.7 Z M207.030001,46.34 C208.616675,46.34 210.12166,46.0716693 211.545001,45.535 C212.968341,44.9983307 214.216662,44.1933387 215.290001,43.12 C216.363339,42.0466613 217.203331,40.6933415 217.810001,39.06 C218.41667,37.4266585 218.720001,35.5133443 218.720001,33.32 L218.720001,30.94 L209.690001,32.2 C201.943295,33.2733387 198.070001,35.7466473 198.070001,39.62 C198.070001,40.7866725 198.338331,41.7899958 198.875001,42.63 C199.41167,43.4700042 200.099996,44.1699972 200.940001,44.73 C201.780005,45.2900028 202.736662,45.698332 203.810001,45.955 C204.883339,46.211668 205.956662,46.34 207.030001,46.34 Z M240.070001,18.13 C241.750009,14.9099839 244.923311,13.3 249.590001,13.3 L252.180001,13.3 C253.206673,13.3 253.720001,13.8133282 253.720001,14.84 L253.720001,15.82 C253.720001,16.8466718 253.206673,17.36 252.180001,17.36 L249.170001,17.36 C246.369987,17.36 244.153342,18.1766585 242.520001,19.81 C240.886659,21.4433415 240.070001,23.659986 240.070001,26.46 L240.070001,48.16 C240.070001,48.626669 239.918336,48.9999986 239.615001,49.28 C239.311666,49.5600014 238.92667,49.7 238.460001,49.7 L237.340001,49.7 C236.313329,49.7 235.800001,49.1866718 235.800001,48.16 L235.800001,14.91 C235.800001,14.443331 235.939999,14.0583348 236.220001,13.755 C236.500002,13.4516651 236.873332,13.3 237.340001,13.3 L238.460001,13.3 C238.92667,13.3 239.311666,13.4516651 239.615001,13.755 C239.918336,14.0583348 240.070001,14.443331 240.070001,14.91 L240.070001,18.13 Z M266.180001,17.29 C267.346673,15.7966592 268.723326,14.6416708 270.310001,13.825 C271.896675,13.0083292 273.856656,12.6 276.190001,12.6 C278.850014,12.6 281.113325,13.1599944 282.980001,14.28 C284.846677,15.4000056 286.316662,17.0333226 287.390001,19.18 C288.46334,17.1733233 290.038324,15.5750059 292.115001,14.385 C294.191678,13.194994 296.583321,12.6 299.290001,12.6 C301.156677,12.6 302.883326,12.9266634 304.470001,13.58 C306.056675,14.2333366 307.433328,15.1899937 308.600001,16.45 C309.766673,17.7100063 310.688331,19.2849905 311.365001,21.175 C312.041671,23.0650094 312.380001,25.2699874 312.380001,27.79 L312.380001,48.16 C312.380001,49.1866718 311.866673,49.7 310.840001,49.7 L309.650001,49.7 C308.623329,49.7 308.110001,49.1866718 308.110001,48.16 L308.110001,28.49 C308.110001,26.2033219 307.853337,24.3016742 307.340001,22.785 C306.826665,21.2683257 306.126672,20.0550045 305.240001,19.145 C304.35333,18.2349954 303.33834,17.5933352 302.195001,17.22 C301.051662,16.8466648 299.850007,16.66 298.590001,16.66 C297.516662,16.66 296.431673,16.8466648 295.335001,17.22 C294.238329,17.5933352 293.235005,18.2349954 292.325001,19.145 C291.414996,20.0550045 290.680004,21.2683257 290.120001,22.785 C289.559998,24.3016742 289.280001,26.2033219 289.280001,28.49 L289.280001,48.16 C289.280001,49.1866718 288.766673,49.7 287.740001,49.7 L286.550001,49.7 C285.523329,49.7 285.010001,49.1866718 285.010001,48.16 L285.010001,28.49 C285.010001,26.2033219 284.730004,24.3016742 284.170001,22.785 C283.609998,21.2683257 282.886672,20.0550045 282.000001,19.145 C281.11333,18.2349954 280.09834,17.5933352 278.955001,17.22 C277.811662,16.8466648 276.656673,16.66 275.490001,16.66 C274.416662,16.66 273.331673,16.8466648 272.235001,17.22 C271.138329,17.5933352 270.135005,18.2349954 269.225001,19.145 C268.314996,20.0550045 267.580004,21.2566592 267.020001,22.75 C266.459998,24.2433408 266.180001,26.1333219 266.180001,28.42 L266.180001,48.16 C266.180001,49.1866718 265.666673,49.7 264.640001,49.7 L263.450001,49.7 C262.423329,49.7 261.910001,49.1866718 261.910001,48.16 L261.910001,14.84 C261.910001,13.8133282 262.423329,13.3 263.450001,13.3 L264.640001,13.3 C265.666673,13.3 266.180001,13.8133282 266.180001,14.84 L266.180001,17.29 Z M348.850001,49.7 C347.823329,49.7 347.310001,49.1866718 347.310001,48.16 L347.310001,44.87 C346.889999,45.5233366 346.341671,46.1766634 345.665001,46.83 C344.988331,47.4833366 344.160006,48.0666641 343.180001,48.58 C342.199996,49.0933359 341.033341,49.5249983 339.680001,49.875 C338.326661,50.2250017 336.74001,50.4 334.920001,50.4 C333.239993,50.4 331.641675,50.1316693 330.125001,49.595 C328.608327,49.0583306 327.27834,48.323338 326.135001,47.39 C324.991662,46.456662 324.081671,45.3600063 323.405001,44.1 C322.728331,42.8399937 322.390001,41.4633408 322.390001,39.97 C322.390001,38.3833254 322.728331,36.9600063 323.405001,35.7 C324.081671,34.4399937 325.026662,33.3316714 326.240001,32.375 C327.45334,31.4183286 328.911659,30.6250032 330.615001,29.995 C332.318343,29.3649968 334.196657,28.9100014 336.250001,28.63 L347.310001,27.09 L347.310001,24.64 C347.310001,22.1199874 346.551675,20.160007 345.035001,18.76 C343.518327,17.359993 341.103351,16.66 337.790001,16.66 C335.176655,16.66 333.158341,17.1616616 331.735001,18.165 C330.311661,19.1683384 329.413336,20.2533275 329.040001,21.42 C328.853333,21.9800028 328.631669,22.3649989 328.375001,22.575 C328.118333,22.7850011 327.780003,22.89 327.360001,22.89 L326.380001,22.89 C325.959999,22.89 325.598336,22.7383349 325.295001,22.435 C324.991666,22.1316652 324.840001,21.7700021 324.840001,21.35 C324.840001,20.6966634 325.073332,19.8800049 325.540001,18.9 C326.00667,17.9199951 326.764996,16.963338 327.815001,16.03 C328.865006,15.096662 330.206659,14.29167 331.840001,13.615 C333.473342,12.9383299 335.456656,12.6 337.790001,12.6 C340.543348,12.6 342.818325,12.9733296 344.615001,13.72 C346.411677,14.4666704 347.823329,15.4349941 348.850001,16.625 C349.876673,17.815006 350.588332,19.1333261 350.985001,20.58 C351.38167,22.0266739 351.580001,23.449993 351.580001,24.85 L351.580001,48.16 C351.580001,49.1866718 351.066673,49.7 350.040001,49.7 L348.850001,49.7 Z M335.620001,46.34 C337.206676,46.34 338.711661,46.0716693 340.135001,45.535 C341.558341,44.9983307 342.806662,44.1933387 343.880001,43.12 C344.95334,42.0466613 345.793331,40.6933415 346.400001,39.06 C347.006671,37.4266585 347.310001,35.5133443 347.310001,33.32 L347.310001,30.94 L338.280001,32.2 C330.533296,33.2733387 326.660001,35.7466473 326.660001,39.62 C326.660001,40.7866725 326.928332,41.7899958 327.465001,42.63 C328.00167,43.4700042 328.689997,44.1699972 329.530001,44.73 C330.370005,45.2900028 331.326662,45.698332 332.400001,45.955 C333.47334,46.211668 334.546662,46.34 335.620001,46.34 Z" id="movikarma" fill="#001E27"></path>
                    <g id="Circle" transform="translate(60.000000, 13.000000)" fill="#00CB94">
                        <g id="Group-Copy-5" fill-rule="nonzero">
                            <path d="M18.5,34.0789474 C27.104015,34.0789474 34.0789474,27.104015 34.0789474,18.5 C34.0789474,9.89598495 27.104015,2.92105263 18.5,2.92105263 C9.89598495,2.92105263 2.92105263,9.89598495 2.92105263,18.5 C2.92105263,27.104015 9.89598495,34.0789474 18.5,34.0789474 Z M18.5,37 C8.28273213,37 0,28.7172679 0,18.5 C0,8.28273213 8.28273213,0 18.5,0 C28.7172679,0 37,8.28273213 37,18.5 C37,28.7172679 28.7172679,37 18.5,37 Z" id="Oval-2"></path>
                        </g>
                        <path d="M21.34375,12 C23.3630411,12 25,13.6322516 25,15.645736 C25,18.0708256 22.8333333,21.1889136 18.5,25 C14.1666667,21.1889136 12,18.0708256 12,15.645736 C12,13.6322516 13.6369589,12 15.65625,12 C16.8048269,12 17.8297056,12.5280917 18.5,13.354053 C19.1702944,12.5280917 20.1951731,12 21.34375,12 Z" id="Heart-Icon-Copy"></path>
                    </g>
                </g>
            </g>
        </g>
    </g>
</svg>